<?xml version="1.0" encoding="UTF-8"?>
<svg width="326px" height="141px" viewBox="0 0 326 141" version="1.1" xmlns="http://www.w3.org/2000/svg" xmlns:xlink="http://www.w3.org/1999/xlink">
    <!-- Generator: Sketch 48.1 (47250) - http://www.bohemiancoding.com/sketch -->
    <title>Page 1</title>
    <desc>Created with Sketch.</desc>
    <defs></defs>
    <g id="Page-1" stroke="none" stroke-width="1" fill="none" fill-rule="evenodd">
        <g fill="#0079FF">
            <polygon id="Fill-1" points="93 0 0 0 0 26.5250161 31.9258496 26.5250161 31.9258496 141 61.0741504 141 61.0741504 26.5250161 93 26.5250161"></polygon>
            <polygon id="Fill-3" points="110 26 136 26 136 0 110 0"></polygon>
            <polygon id="Fill-4" points="110 141 136 141 136 40 110 40"></polygon>
            <path d="M271,35 C240.624437,35 216,58.7290021 216,87.9999976 C216,117.272356 240.624437,141 271,141 C301.375563,141 326,117.272356 326,87.9999976 C326.001415,58.7290021 301.375563,35 271,35 Z M241.289389,87.9999976 C241.289389,71.4353681 255.22508,58.0064298 272.414791,58.0064298 C289.604502,58.0064298 303.540193,71.4353681 303.540193,87.9999976 C303.540193,89.3060812 303.443987,90.5889879 303.277042,91.8514444 C300.713441,72.8109822 282.359357,70.7018891 276.482315,70.7018891 C270.159614,70.7018891 268.170418,71.5539791 264.633441,73.6848857 L264.633441,94.1350456 C264.633441,94.1350456 267.729003,92.0900296 271.884244,92.0900296 C276.0409,92.0900296 284.617363,94.3913542 284.617363,104.275598 C284.617363,114.135302 277.676399,117.959482 271.03254,117.959482 C255.261865,117.958118 241.289389,104.11745 241.289389,87.9999976 Z" id="Fill-5"></path>
            <path d="M207,60.0183695 L207,37.6859529 L187.536585,37.6859529 L187.536585,0 L162.512195,0 L162.512195,37.6859529 L150,37.6859529 L150,60.0183695 L162.512195,60.0183695 L162.512195,108.870531 C162.512195,108.870531 162.512195,117.708584 162.512195,118.640963 C162.512195,119.573341 162.509415,141.875051 205.609756,140.973385 L205.609756,118.640963 C205.609756,118.640963 187.536585,119.905536 187.536585,108.870531 L187.536585,60.0183695 L207,60.0183695 Z" id="Fill-6"></path>
        </g>
    </g>
</svg>